<svg width="708" height="711" viewBox="0 0 708 711" fill="none" xmlns="http://www.w3.org/2000/svg">
<path d="M353.87 710.14C549.308 710.14 707.741 551.169 707.741 355.07C707.741 158.97 549.308 0 353.87 0C158.433 0 0 158.97 0 355.07C0 551.169 158.433 710.14 353.87 710.14Z" fill="#283892"/>
<path d="M587.33 491.563C571.87 557.226 424.219 608.196 311.416 596.706C282.867 593.669 184.379 583.737 124.828 500.756C53.9886 401.688 98.0793 280.951 108.468 254.03C153.049 143.47 261.681 66.8915 302.009 72.4728C302.958 72.5858 303.891 72.8061 304.79 73.1294C328.103 83.0609 255.71 197.067 286.957 302.948C291.34 318.126 297.839 332.605 306.262 345.957C382.501 463.903 591.093 442.481 587.985 487.952C587.877 489.173 587.658 490.382 587.33 491.563Z" fill="white"/>
<path d="M547.819 127.961L540.784 126.73L535.304 131.326L534.895 124.924L528.678 121.969L535.386 119.178L537.022 112.776L541.603 117.455L548.801 116.47L544.956 122.215L547.819 127.961Z" fill="white"/>
<path d="M641.809 359.012L634.774 357.862L629.293 362.377L628.884 355.975L622.667 353.02L629.375 350.311L631.011 343.909L635.592 348.588L642.872 347.603L638.946 353.266L641.809 359.012Z" fill="white"/>
<path d="M549.946 622.239L542.993 621.09L537.513 625.604L537.022 619.202L530.887 616.247L537.594 613.539L539.23 607.137L543.811 611.815L551.01 610.83L547.165 616.494L549.946 622.239Z" fill="white"/>
<path d="M182.006 621.341L174.972 620.192L169.491 624.706L169 618.304L162.865 615.349L169.573 612.558L171.209 606.238L175.79 610.917L182.988 609.932L179.143 615.595L182.006 621.341Z" fill="white"/>
<path d="M186.424 93.1561L179.389 92.007L173.99 96.6034L173.499 90.1192L167.282 87.1644L174.072 84.4558L175.708 78.0537L180.289 82.7322L187.487 81.7472L183.561 87.4106L186.424 93.1561Z" fill="white"/>
<path d="M373.258 69.9276L366.223 68.6964L360.742 73.2928L360.251 66.8907L354.116 63.9359L360.824 61.1452L362.46 54.8252L367.041 59.5037L374.239 58.4366L370.395 64.1821L373.258 69.9276Z" fill="white"/>
<path d="M397.798 674.195L390.845 673.046L385.364 677.642L384.873 671.158L378.656 668.286L385.446 665.495L387.082 659.093L391.663 663.771L398.861 662.786L395.017 668.45L397.798 674.195Z" fill="white"/>
<path d="M62.0049 440.272L54.97 439.123L49.4894 443.72L49.0804 437.235L42.8635 434.363L49.5712 431.572L51.2072 425.17L55.8699 429.848L63.0683 428.863L59.1419 434.527L62.0049 440.272Z" fill="white"/>
<path d="M66.9139 250.017L59.879 248.868L54.4801 253.465L53.9893 247.063L47.7725 244.108L54.5619 241.317L56.1162 234.915L60.7788 239.593L67.9773 238.609L64.0508 244.272L66.9139 250.017Z" fill="white"/>
</svg>
