<?xml version="1.0" encoding="utf-8"?>
<!-- Generator: Adobe Illustrator 25.3.0, SVG Export Plug-In . SVG Version: 6.00 Build 0)  -->
<svg version="1.1" id="Layer_1" xmlns="http://www.w3.org/2000/svg" xmlns:xlink="http://www.w3.org/1999/xlink" x="0px" y="0px"
	 viewBox="0 0 708 711" style="enable-background:new 0 0 708 711;" xml:space="preserve">
<style type="text/css">
	.st0{fill:#FFEEC3;}
	.st1{fill:#FEC12F;}
</style>
<path class="st0" d="M354,710.9c195.4,0,353.9-159,353.9-355.1S549.5,0.7,354,0.7C158.6,0.7,0.2,159.7,0.2,355.8
	S158.6,710.9,354,710.9z"/>
<path class="st1" d="M358.9,499.9c86,0,155.7-66.2,155.7-147.8c0-81.6-69.7-147.8-155.7-147.8c-86,0-155.7,66.2-155.7,147.8
	C203.1,433.8,272.8,499.9,358.9,499.9z"/>
<path class="st1" d="M510.7,231.4c22.9-25.2,35.3-51.3,27.7-58.2c-7.6-6.9-32.3,7.9-55.1,33.1c-22.9,25.2-35.3,51.3-27.7,58.2
	C463.2,271.4,487.9,256.6,510.7,231.4z"/>
<path class="st1" d="M572.7,494.3c6-8.4-11.5-31.3-39.1-51.2c-27.6-19.9-54.8-29.3-60.8-20.9c-6,8.4,11.5,31.3,39.1,51.2
	C539.5,493.3,566.7,502.7,572.7,494.3z"/>
<path class="st1" d="M258.7,276.4c6-8.4-11.5-31.3-39.1-51.2s-54.8-29.3-60.8-20.9c-6,8.4,11.5,31.3,39.1,51.2
	C225.5,275.3,252.7,284.7,258.7,276.4z"/>
<path class="st1" d="M164.5,385.1c33.9-2.9,60.6-13.5,59.7-23.8c-0.9-10.3-29-16.2-62.9-13.4c-33.9,2.9-60.6,13.5-59.7,23.8
	C102.5,382,130.6,388,164.5,385.1z"/>
<path class="st1" d="M552.1,363.6c33.9-2.9,60.6-13.5,59.7-23.8c-0.9-10.3-29-16.2-62.9-13.4c-33.9,2.9-60.6,13.5-59.7,23.8
	C490.1,360.5,518.3,366.5,552.1,363.6z"/>
<path class="st1" d="M354.3,233c10.2-0.3,17.7-28.2,16.7-62.3c-1-34.1-10.2-61.4-20.5-61.1c-10.3,0.3-17.7,28.2-16.7,62.3
	C334.8,205.9,344,233.3,354.3,233z"/>
<path class="st1" d="M367.4,595.5c10.3,0,18.6-27.6,18.6-61.7c0-34.1-8.3-61.7-18.6-61.7c-10.3,0-18.6,27.6-18.6,61.7
	C348.8,567.8,357.1,595.5,367.4,595.5z"/>
<path class="st1" d="M252.5,506.9c22.9-25.2,35.3-51.3,27.7-58.2c-7.6-6.9-32.3,7.9-55.1,33.1c-22.9,25.2-35.3,51.3-27.7,58.2
	C205,546.9,229.7,532.1,252.5,506.9z"/>
</svg>
