<?xml version="1.0" encoding="utf-8"?>
<!-- Generator: Adobe Illustrator 25.3.0, SVG Export Plug-In . SVG Version: 6.00 Build 0)  -->
<svg version="1.1" id="Layer_1" focusable="false" xmlns="http://www.w3.org/2000/svg" xmlns:xlink="http://www.w3.org/1999/xlink"
	 x="0px" y="0px" viewBox="0 0 929.2 926.1" style="enable-background:new 0 0 929.2 926.1;" xml:space="preserve">
<style type="text/css">
	.st0{fill:#FFFFFF;}
	.st1{fill:#DE4B38;}
</style>
<circle class="st0" cx="463.6" cy="462.6" r="462.2"/>
<path class="st1" d="M707.6,468.4c0,141.5-96.9,242.2-240,242.2c-137.2,0-248-110.8-248-248s110.8-248,248-248
	c66.8,0,123,24.5,166.3,64.9l-67.5,64.9c-88.3-85.2-252.5-21.2-252.5,118.2c0,86.5,69.1,156.6,153.7,156.6
	c98.2,0,135-70.4,140.8-106.9H467.6V427h236.1C706,439.7,707.6,451.9,707.6,468.4L707.6,468.4z"/>
</svg>
