<?xml version="1.0" encoding="utf-8"?>
<!-- Generator: Adobe Illustrator 25.3.0, SVG Export Plug-In . SVG Version: 6.00 Build 0)  -->
<svg version="1.1" id="Layer_1" xmlns="http://www.w3.org/2000/svg" xmlns:xlink="http://www.w3.org/1999/xlink" x="0px" y="0px"
	 viewBox="0 0 1389.5 685.3" style="enable-background:new 0 0 1389.5 685.3;" xml:space="preserve">
<style type="text/css">
	.st0{fill:none;}
	.st1{fill:#484847;}
	.st2{fill:#27B04C;}
	.st3{fill:#FCB315;}
	.st4{fill:#3A7A4B;}
</style>
<g>
	<path class="st0" d="M877.2,324.3c0,0.1,0,0.2,0,0.3V324.3C877.2,324.3,877.2,324.3,877.2,324.3z M662.9,261.1
		c0,0.1,0.1,0.3,0.1,0.4v-0.7C663,260.9,663,261,662.9,261.1L662.9,261.1z M671.7,278.3l0.3,0.5c0-0.3,0-0.6,0-1
		C671.9,278,671.8,278.2,671.7,278.3z M749.9,422.1c0,0.1,0,0.2,0.1,0.3L749.9,422.1C750,422.1,750,422.1,749.9,422.1L749.9,422.1z
		 M609.6,465.6C609.6,465.6,609.6,465.7,609.6,465.6l0.3,0.2L609.6,465.6z M613.8,423.6c-0.1,0.2-0.1,0.3-0.2,0.5h0.2L613.8,423.6z
		 M493.6,356.2v0.2l0.1,0.1L493.6,356.2z M789.5,313.6c-0.1,0.1-0.1,0.2-0.2,0.3C789.3,313.8,789.4,313.7,789.5,313.6
		C789.5,313.6,789.5,313.6,789.5,313.6L789.5,313.6z M795.8,279.8C795.8,279.8,795.8,279.9,795.8,279.8L795.8,279.8L795.8,279.8z
		 M786.9,375.8v0.2c0.1-0.2,0.2-0.4,0.3-0.5C787.2,375.6,787.1,375.7,786.9,375.8z"/>
	<path class="st1" d="M786.9,376l-4.3,46.3c-0.1,0.8-0.3,1.7-0.5,2.5c-0.4,1.2-1.1,2.3-1.9,3.3l0,0c-2.2,2.5-5.4,3.8-8.7,3.5
		l-12.3-1.1c-4.5-0.4-8.2-3.7-9.1-8.1l0-0.2c0,0-0.1,0-0.1,0c-0.2-0.9-0.2-1.9-0.1-2.8l1.5-16.1C766.1,398.8,778.8,389.1,786.9,376z
		"/>
	<path class="st0" d="M609.6,465.6C609.6,465.6,609.6,465.7,609.6,465.6l0.3,0.2L609.6,465.6z M749.9,422.1c0,0.1,0,0.2,0.1,0.3
		L749.9,422.1C750,422.1,750,422.1,749.9,422.1z"/>
	<path class="st2" d="M840.2,450l-7.6,26.7l-1,3.5l-3.9,13.5c-1.6-0.2-3.3-0.3-4.9-0.5c-1.3-0.1-2.6-0.3-3.9-0.4
		c-14.6-1.4-29.3-2.6-44.1-3.5c-0.2,0-0.5,0-0.7,0l0.6-6.1l5.5-55.2l0,0c0.8-1,1.5-2.1,1.9-3.3c20.2,2.1,40.3,4.9,60,8.4l-2.2,12.1
		C839.7,446.8,839.7,448.4,840.2,450z"/>
	<path class="st0" d="M1210.4,596.2H179.1C254,562.8,332,536.8,412,518.6c32.9-7.5,66.4-13.7,100.2-18.6c2.6-0.4,5.2-0.8,7.8-1.1
		c0.1,0,0.2,0,0.3,0c1.1-0.2,2.2-0.3,3.4-0.5c0.9-0.1,1.9-0.3,2.8-0.4c10-1.3,20-2.5,30.1-3.6c20.7-2.2,41.6-4,62.6-5.2
		c2.2-0.1,4.3-0.3,6.5-0.4l0,0c1.5-0.1,3.1-0.2,4.6-0.3l1.6-0.1l0,0c10.2-0.5,20.4-0.9,30.7-1.1l1.9,0c1,0,1.9-0.1,2.9-0.1
		c2,0,4.1-0.1,6.1-0.1c0.9,0,1.8,0,2.7,0l0,0c6.1-0.1,12.3-0.1,18.4-0.1c6.2,0,12.4,0,18.6,0.1c9.8,0.1,19.5,0.4,29.3,0.8
		c7.2,0.3,14.4,0.6,21.6,1c0.3,0,0.6,0,0.9,0c0.4,0,0.8,0,1.2,0.1c2.6,0.1,5.2,0.3,7.7,0.4c0.3,0,0.5,0,0.7,0
		c14.8,0.9,29.4,2.1,44.1,3.5c1.3,0.1,2.6,0.2,3.9,0.4c1.7,0.2,3.3,0.3,4.9,0.5c2,0.2,4,0.4,6,0.6l0,0c0.3,0,0.6,0.1,0.9,0.1
		c9.7,1.1,19.4,2.2,29.1,3.5c24.4,3.3,48.7,7.2,72.6,11.9c3.8,0.7,7.5,1.5,11.3,2.2l0,0c2.8,0.6,5.7,1.1,8.5,1.8
		c2.7,0.6,5.3,1.1,8,1.7l0,0c4.5,1,9,2,13.4,3C1057.5,536.8,1135.5,562.8,1210.4,596.2z"/>
	<path class="st0" d="M671.7,278.3l0.3,0.5c0-0.3,0-0.6,0-1C671.9,278,671.8,278.2,671.7,278.3z M662.9,261.1c0,0.1,0.1,0.3,0.1,0.4
		v-0.7C663,260.9,663,261,662.9,261.1L662.9,261.1z"/>
	<path class="st0" d="M795.8,279.8C795.8,279.8,795.8,279.9,795.8,279.8L795.8,279.8L795.8,279.8z"/>
	<path class="st0" d="M789.5,313.6c-0.1,0.1-0.1,0.2-0.2,0.3C789.4,313.8,789.4,313.7,789.5,313.6
		C789.5,313.6,789.5,313.6,789.5,313.6z M795.8,279.8C795.8,279.8,795.8,279.9,795.8,279.8L795.8,279.8L795.8,279.8z M671.7,278.3
		l0.3,0.5c0-0.3,0-0.6,0-1C671.9,278,671.8,278.2,671.7,278.3z M662.9,261.1c0,0.1,0.1,0.3,0.1,0.4v-0.7
		C663,260.9,663,261,662.9,261.1L662.9,261.1z"/>
	<path class="st0" d="M789.5,313.6c-0.1,0.1-0.1,0.2-0.2,0.3C789.4,313.8,789.4,313.7,789.5,313.6
		C789.5,313.6,789.5,313.6,789.5,313.6z"/>
	<path class="st0" d="M671.7,278.3l0.3,0.5c0-0.3,0-0.6,0-1C671.9,278,671.8,278.2,671.7,278.3z M662.9,261.1c0,0.1,0.1,0.3,0.1,0.4
		v-0.7C663,260.9,663,261,662.9,261.1L662.9,261.1z M795.8,279.8C795.8,279.8,795.8,279.9,795.8,279.8L795.8,279.8L795.8,279.8z
		 M789.5,313.6c-0.1,0.1-0.1,0.2-0.2,0.3C789.3,313.8,789.4,313.7,789.5,313.6C789.5,313.6,789.5,313.6,789.5,313.6L789.5,313.6z"/>
	<path class="st0" d="M786.9,375.8v0.2c0.1-0.2,0.2-0.4,0.3-0.5C787.2,375.6,787.1,375.7,786.9,375.8z M789.5,313.6
		c-0.1,0.1-0.1,0.2-0.2,0.3C789.4,313.8,789.4,313.8,789.5,313.6C789.5,313.6,789.5,313.6,789.5,313.6L789.5,313.6z"/>
	<path class="st0" d="M789.5,313.6c-0.1,0.1-0.1,0.2-0.2,0.3C789.4,313.8,789.4,313.7,789.5,313.6
		C789.5,313.6,789.5,313.6,789.5,313.6z M671.7,278.3l0.3,0.5c0-0.3,0-0.6,0-1C671.9,278,671.8,278.2,671.7,278.3z"/>
	<path class="st1" d="M795.8,279.8c-8.9,12.4-21.3,21.8-35.6,27l-2.4,26.3c11.9-3.7,22.7-10.3,31.5-19.3
		c-7.4,12.2-18.8,21.5-32.2,26.5l-2.2,23.5c11.9-3.7,22.7-10.3,31.4-19.3c-7.4,12.2-18.7,21.5-32,26.4l-2.3,24.8
		c13.3-3.4,25.3-10.3,35-20l3.3-35.6l0.4-4.1l0,0l1.5-16.6l0.9-9.8l0.4-3.9l0,0l0.7-7.5l0,0l1.7-18.5
		C795.8,279.9,795.8,279.9,795.8,279.8z M789.3,313.9c0.1-0.1,0.1-0.2,0.2-0.3c0,0,0,0.1,0,0.1C789.4,313.8,789.4,313.8,789.3,313.9
		z"/>
	<path class="st0" d="M877.2,324.3l0,0.4C877.2,324.5,877.2,324.4,877.2,324.3C877.2,324.3,877.2,324.3,877.2,324.3z"/>
	<path class="st0" d="M877.2,324.3l0,0.4C877.2,324.5,877.2,324.4,877.2,324.3C877.2,324.3,877.2,324.3,877.2,324.3z"/>
	<path class="st3" d="M1002.5,396.9c0,1.4,0,2.8,0,4.2c0,2.7-0.1,5.5-0.2,8.2l0,0c-0.9,22-4.1,43.8-9.6,65.1
		c-36.3-13.7-73.5-24.9-111.3-33.4l4.8-26.7c-12.7-13.9-19.8-32.1-19.8-51c0-1.3,0-2.7,0.1-4c0.9,18.1,8.3,35.3,20.9,48.4l5.8-32.3
		c-10.5-13.3-16.2-29.8-16.2-46.8c0-1.3,0-2.7,0.1-4c0.8,16.2,6.9,31.7,17.2,44.2l5.2-28.7c-7.8-5.4-14.4-12.2-19.7-20.1
		c-0.7-1-1.3-2-1.9-3l0,0c-0.2-0.3-0.4-0.7-0.6-1c0-0.1-0.1-0.1-0.1-0.2c-4.7-8.1-7.8-16.9-9.2-26.1l-26,143.4
		c-19.8-3.5-39.8-6.3-60-8.4c0.3-0.8,0.5-1.6,0.5-2.5l4.3-46.3c0.1-0.2,0.2-0.4,0.3-0.5c-0.1,0.1-0.2,0.2-0.3,0.3l3.3-35.6l0.4-4.1
		l0,0l1.5-16.6l0.9-9.8l0.4-3.9l0,0l0.7-7.5l0,0l1.7-18.5v-0.1l-0.1,0.1c-8.9,12.4-21.3,21.8-35.6,27l-2.4,26.3
		c11.9-3.7,22.8-10.4,31.5-19.3c-7.4,12.2-18.8,21.5-32.2,26.5l-2.2,23.5c11.9-3.7,22.7-10.3,31.4-19.3c-7.4,12.2-18.7,21.5-32,26.4
		l-2.3,24.8c13.3-3.4,25.3-10.3,35-20v0.2c-8.2,13.1-20.8,22.8-35.6,27.2l-1.5,16c-0.1,0.9,0,1.9,0.1,2.8
		c-11.7-0.8-23.4-1.3-35.2-1.5v-17.5c-14.9-4.5-27.5-14.4-35.6-27.7c9.8,10,22.1,17.1,35.6,20.5v-23.4
		c-15.2-4.4-28.3-14.3-36.6-27.9c10,10.2,22.7,17.4,36.6,20.7v-24.4c-14-4.8-25.9-14.3-33.6-26.9c9.3,9.5,20.8,16.3,33.6,19.9v-24.9
		c-9.1-2.4-17.7-6.5-25.3-12.1c-5.2-3.8-9.9-8.3-13.9-13.3c-1.3-1.5-2.4-3.1-3.6-4.7c0-0.3,0-0.6,0-1c-0.1,0.2-0.2,0.3-0.4,0.5
		c-3.6-5.2-6.5-10.9-8.6-16.8v-0.7c0,0.1-0.1,0.2-0.1,0.3c0,0.1,0.1,0.3,0.1,0.4v159.4c-16.5,0.6-32.9,1.7-49.2,3.2l0-0.5l-0.3-5.3
		l-1.8-30.9l-0.2-3.4l-1.2-21l-0.2-3.3l0,0l-1.3-22.4l-0.3-5.1l-0.4-8l-0.5-8.4c-0.9,1.2-1.9,2.4-2.9,3.5
		c-6.7,7.7-15,13.9-24.3,18.1l1.3,22.4c6.8-3.2,13-7.5,18.5-12.7c-5,6.5-11.2,12-18.3,16.2l1.2,20.5c7.6-3.3,14.6-8,20.6-13.7
		c-5.5,7.2-12.4,13.1-20.4,17.4l1.2,20.8c7.6-3.3,14.5-8,20.5-13.7c-5.4,7.2-12.4,13.1-20.3,17.3l0.9,15.2
		c-15.1,1.9-30.1,4.3-44.9,7l-2.5-17.5l0,0c-12.7-3.7-23.9-11.5-31.9-22c8.8,8.4,19.5,14.3,31.3,17.4l-2.9-20.6
		c-11.8-4-22.1-11.4-29.6-21.3c8.2,7.8,18.1,13.5,28.9,16.7l-2.6-18.4c-11.9-4-22.3-11.4-29.8-21.4c8.3,7.8,18.3,13.6,29.2,16.8
		l-3.4-24c-12.9-4.5-24.3-12.6-32.8-23.3l-3.7-5.1l-1.9-3.1l0,0c-1-1.7-1.9-3.4-2.8-5.1l2.1,14.4l2.3,16.1l3.2,22.2v0.3l0.1,0.1
		l2.8,19.3l1.3,9.4l8.1,56.3c-37,8.5-73.4,19.5-109,32.9c-6.6-25.3-9.9-51.4-9.9-77.5c0-170,137.8-307.8,307.8-307.8
		c96.5,0,182.6,44.4,239,113.8l58.4,114.6l0,0c1.3,4.9,2.5,9.8,3.6,14.8c3.2,15.1,5.3,30.5,6.2,45.9c0.2,2.5,0.3,5.1,0.4,7.6
		C1002.5,389.6,1002.5,393.2,1002.5,396.9z"/>
	<path class="st1" d="M894.4,368.9l5.2-28.6c-7.8-5.4-14.4-12.2-19.7-20.1c-0.7-1-1.3-2-1.9-3l0,0c-0.2-0.3-0.4-0.7-0.6-1
		c0-0.1-0.1-0.1-0.1-0.2c-4.7-8.1-7.8-16.9-9.2-26.1l-26,143.4l-2.2,12.1c-0.3,1.6-0.2,3.2,0.3,4.7c1.1,3.7,4.2,6.5,8,7.2l11.7,2.1
		l4,0.7l0,0l3.5,0.6c2,0.4,4,0.1,5.8-0.7c1.2-0.5,2.3-1.2,3.2-2.1c1.1-1.1,2-2.4,2.5-3.9c0.2-0.5,0.3-1.1,0.4-1.6l2-11.3l4.8-26.7
		c-12.7-13.9-19.8-32.1-19.8-51c0-1.3,0-2.7,0.1-4c0.9,18.1,8.3,35.3,20.9,48.4l5.8-32.3c-10.5-13.3-16.2-29.8-16.2-46.8
		c0-1.3,0-2.7,0.1-4C878,340.9,884.1,356.4,894.4,368.9z M877.2,324.3l0,0.4C877.2,324.5,877.2,324.4,877.2,324.3
		C877.2,324.3,877.2,324.3,877.2,324.3z"/>
	<path class="st0" d="M877.2,324.3l0,0.4C877.2,324.5,877.2,324.4,877.2,324.3C877.2,324.3,877.2,324.3,877.2,324.3z"/>
	<path class="st0" d="M493.6,356.2v0.2l0.1,0.1L493.6,356.2z"/>
	<path class="st0" d="M490.8,311.7c-0.7-1-1.3-2-1.9-3.1L490.8,311.7z"/>
	<path class="st0" d="M490.8,311.7c-0.7-1-1.3-2-1.9-3.1L490.8,311.7z"/>
	<path class="st0" d="M493.6,356.2v0.2l0.1,0.1L493.6,356.2z"/>
	<path class="st1" d="M613.9,423.6c-0.1,0.2-0.1,0.3-0.2,0.5c-9.3,0.9-18.6,1.9-27.8,3.1l-0.3,0l-0.9-15.2
		c8-4.2,14.9-10.1,20.3-17.3c-6,5.7-13,10.3-20.5,13.7l-1.2-20.8c8-4.2,15-10.2,20.4-17.4c-6,5.7-13,10.4-20.6,13.7l-1.2-20.5
		c7.1-4.1,13.3-9.6,18.3-16.2c-5.5,5.2-11.7,9.5-18.5,12.7l-1.3-22.4c9.3-4.2,17.6-10.4,24.3-18.1c1-1.1,2-2.3,2.9-3.5l0.5,8.4
		l0.4,8l0.3,5.1l1.3,22.4l0,0l0.2,3.3l1.2,21l0.2,3.4l1.8,30.9L613.9,423.6z"/>
	<path class="st0" d="M494.4,316.8c-1.3-1.6-2.5-3.3-3.7-5.1L494.4,316.8z"/>
	<path class="st0" d="M494.4,316.8c-1.3-1.6-2.5-3.3-3.7-5.1L494.4,316.8z"/>
	<path class="st3" d="M933.7,203c10.9,13.4,20.6,27.7,29.1,42.7c1.6,2.9,3.2,5.8,4.7,8.7c6.4,12.3,12,25,16.7,38.1
		c1.3,3.5,2.4,7,3.6,10.5l0,0c1.5,4.8,3,9.7,4.3,14.6L933.7,203z"/>
	<path class="st0" d="M493.7,356.6L493.7,356.6l-0.1-0.3L493.7,356.6z"/>
	<path class="st1" d="M533.4,456.1l-9,1.3l-0.9,0.1l-4.9,0.7c-4.3,0.6-8.5-1.5-10.5-5.3v0c-0.1-0.2-0.2-0.4-0.3-0.6
		c-0.1-0.2-0.2-0.4-0.3-0.6c0-0.1-0.1-0.3-0.1-0.4c-0.1-0.2-0.1-0.4-0.2-0.6c-0.1-0.4-0.2-0.8-0.3-1.2l-1.1-8l-8-56.3l-1.3-9.4
		l-2.8-19.3l-0.1-0.3l0,0l-3.2-22.2l-2.3-16.1l-2.1-14.4c0.9,1.8,1.8,3.5,2.8,5.1l0,0c0.6,1,1.3,2,1.9,3.1c1.1,1.7,2.4,3.4,3.7,5.1
		c8.5,10.7,19.9,18.8,32.8,23.3l3.4,24c-10.9-3.2-20.9-9-29.2-16.8c7.6,10,18,17.4,29.8,21.4l2.6,18.4c-10.8-3.2-20.7-9-28.9-16.7
		c7.5,9.9,17.8,17.3,29.6,21.3l2.9,20.6c-11.7-3.1-22.5-9-31.3-17.4c8,10.6,19.2,18.3,31.9,22l0,0l2.5,17.5l0.6,4.3l0.1,0.8l0.4,2.9
		l0.3,2.2C542.9,450.1,539,455.3,533.4,456.1z"/>
	<path class="st4" d="M556.7,494.3c-10.1,1.1-20.1,2.3-30.1,3.6c-0.9,0.1-1.9,0.3-2.8,0.4c-1.1,0.1-2.2,0.3-3.4,0.5l-2.6-9.9
		c0,0,0,0,0,0l0,0l-3.2-12.1l0,0l-6.4-23.7c2.1,3.8,6.3,5.9,10.5,5.3l4.9-0.7l0.9-0.1l8.9-1.3c5.6-0.8,9.5-6,8.7-11.6l-0.3-2.2
		l-0.4-2.9c0.8,0.5,1.4,1.2,1.9,2.1c0.3,0.5,0.6,1.1,0.7,1.8l4.8,19.5c-8.1,5.4-14.5,13-18.4,21.8c4.9-7.5,11.5-13.8,19.3-18.4
		L556.7,494.3z"/>
	<path class="st4" d="M842.1,488.9c-1.1,0.7-2.2,1.5-3.3,2.3c8.9-5.2,18.8-8.5,29-9.7l-4.2,16.5c-9.7-1.3-19.3-2.5-29.1-3.5
		c-0.3,0-0.6-0.1-0.9-0.1l0,0c-2-0.2-4-0.4-6-0.6l3.9-13.5l1-3.5l7.6-26.8c1.1,3.7,4.2,6.5,8,7.2l11.7,2.1l4,0.7l0,0l3.5,0.6
		c2,0.4,4,0.1,5.8-0.7l-4.5,18.1C859.2,480,850.2,483.6,842.1,488.9z"/>
	<path class="st4" d="M608.9,450.5c-0.2,5,0.1,10.1,0.8,15.1c-7.5-6.1-16.5-9.9-26-11.1c-1.4-6.2-1.5-12.5-0.2-18.7
		c6.2,1.3,12.2,3.6,17.7,6.8c-5.1-4.2-10.9-7.3-17.1-9.3c0.2-0.6,0.3-1.2,0.5-1.8c0.4-1.4,0.9-2.8,1.4-4.2
		c9.2-1.2,18.5-2.2,27.8-3.1c-1.7,5.1-2.9,10.3-3.8,15.5c-0.5,2.9-0.8,5.7-0.9,8.4C608.9,448.9,608.9,449.7,608.9,450.5L608.9,450.5
		z"/>
	<path class="st0" d="M609.6,465.6C609.6,465.6,609.6,465.7,609.6,465.6l0.3,0.2L609.6,465.6z"/>
	<path class="st2" d="M520.4,498.8c-0.1,0-0.2,0-0.3,0c-2.6,0.4-5.2,0.7-7.8,1.1C478.4,504.8,445,511,412,518.6
		c-80,18.2-158,44.2-232.9,77.7c96.4-74.7,207.9-127.4,326.7-154.7l1.1,8c0.1,0.4,0.1,0.8,0.3,1.2c0.1,0.2,0.1,0.4,0.2,0.6
		c0,0.1,0.1,0.2,0.1,0.4c0.1,0.2,0.2,0.4,0.3,0.6c0.1,0.2,0.2,0.4,0.3,0.6v0l6.4,23.7l0,0l3.2,12.1l0,0c0,0,0,0,0,0L520.4,498.8z"/>
	<path class="st0" d="M609.6,465.6C609.6,465.6,609.6,465.7,609.6,465.6l0.3,0.2L609.6,465.6z"/>
	<path class="st2" d="M663.1,435.1v-14.2c-16.5,0.6-32.9,1.7-49.2,3.2h-0.2c-1.7,5.1-2.9,10.3-3.8,15.5c-0.5,2.9-0.8,5.7-0.9,8.4
		c-0.1,0.8-0.1,1.6-0.1,2.5l0,0c-0.2,5,0.1,10.1,0.8,15.1c-7.5-6.1-16.5-9.9-26-11.1c-1.4-6.2-1.5-12.5-0.2-18.7
		c6.2,1.3,12.2,3.6,17.7,6.8c-5.1-4.2-10.9-7.3-17.1-9.3c0.2-0.6,0.3-1.2,0.5-1.8c0.4-1.4,0.9-2.8,1.4-4.2l-0.3,0
		c-15.1,1.9-30.1,4.3-44.9,7l0.6,4.3l0.1,0.8c0.8,0.5,1.4,1.2,1.9,2.1c0.3,0.5,0.6,1.1,0.7,1.8l4.7,19.5c-8.1,5.4-14.5,13-18.4,21.8
		c4.9-7.5,11.5-13.8,19.3-18.4l7,28.2c20.7-2.2,41.6-4,62.6-5.2c2.2-0.1,4.3-0.3,6.5-0.4l0,0c1.5-0.1,3.1-0.2,4.6-0.3l1.6-0.1l0,0
		c10.2-0.5,20.4-0.9,30.7-1.1l1.9,0v-46.8C663.6,438.8,663.1,437,663.1,435.1z M601.9,467.5l-12.5-4.8c-2.7-1-4.7-2.8-4.6-4
		c-0.1-0.2-0.2-0.5-0.3-0.8c8.8,0.7,17.4,3.3,25.1,7.7c0,0,0,0,0-0.1l0.3,0.2l-0.3-0.2c0.1,0.6,0.2,1.2,0.3,1.9
		C609.8,468.2,609.3,468.4,601.9,467.5z"/>
	<path class="st4" d="M609.9,467.5c-0.1,0.6-0.6,0.8-8-0.1l-12.5-4.8c-2.7-1-4.7-2.8-4.6-4c-0.1-0.2-0.2-0.5-0.3-0.8
		c8.8,0.7,17.4,3.3,25.1,7.7C609.7,466.3,609.8,466.9,609.9,467.5z"/>
	<path class="st0" d="M609.9,465.8l-0.3-0.2c0,0,0,0,0-0.1L609.9,465.8z"/>
	<path class="st1" d="M714.8,308.9c-9.1-2.4-17.7-6.5-25.3-12.1c-5.2-3.8-9.9-8.3-13.9-13.3c-1.3-1.5-2.4-3.1-3.6-4.7l-0.3-0.5
		c-3.6-5.2-6.5-10.9-8.6-16.8v173.5c0,5.7,4.6,10.3,10.3,10.3h31.1c3.7,0,7.1-2,8.9-5.1c0.9-1.6,1.4-3.3,1.4-5.1v-32
		c-14.9-4.5-27.5-14.4-35.6-27.7c9.8,10,22.1,17.1,35.6,20.5v-23.4c-15.2-4.4-28.3-14.3-36.6-27.9c10,10.2,22.7,17.4,36.6,20.7
		v-24.4c-14-4.8-25.9-14.3-33.6-26.9c9.3,9.5,20.8,16.3,33.6,19.9L714.8,308.9z M678.4,310.9l0.6-1c0.7,1.3,1.4,2.7,2.2,4
		C680.2,312.9,679.3,311.9,678.4,310.9z"/>
	<path class="st1" d="M681.2,313.9c-1-1-1.9-2-2.8-3l0.6-1C679.7,311.3,680.4,312.6,681.2,313.9z"/>
	<path class="st2" d="M761.9,481.7c-4.5-6.3-10.2-11.5-16.9-15.5l-2.4,21.5c-9.7-0.4-19.5-0.6-29.3-0.8v-28.5
		c-11.1,0.6-21.7,4.5-30.5,11.1c7.7-9.2,18.6-15,30.5-16.4v-13c0.9-1.6,1.4-3.3,1.4-5.1v-14.5c11.8,0.3,23.5,0.8,35.2,1.5
		c0,0.1,0,0.2,0.1,0.3l-1.4,12.7c7,5.1,12.4,11.9,15.7,19.9c-4.4-6.1-9.9-11.2-16.2-15.1l-2.4,21.6
		C752.9,466.5,758.5,473.6,761.9,481.7z"/>
	<path class="st4" d="M780.1,428.1l-5.5,55.2l-0.6,6.1c-2.6-0.2-5.2-0.3-7.7-0.4c-0.4,0-0.8-0.1-1.2-0.1c-0.3,0-0.6,0-0.9,0
		c-7.2-0.4-14.4-0.7-21.6-1l2.4-21.5c6.6,3.9,12.4,9.2,16.9,15.5c-3.4-8.2-9.1-15.2-16.3-20.3l2.4-21.6c6.4,3.9,11.9,9,16.2,15.1
		c-3.3-7.9-8.8-14.8-15.7-19.9l1.4-12.7c0.9,4.4,4.6,7.7,9.1,8.1l12.3,1.1C774.7,431.9,778,430.6,780.1,428.1z"/>
	<path class="st4" d="M682.8,469.6c8.9-6.6,19.5-10.5,30.5-11.1V487c-6.2-0.1-12.4-0.1-18.6-0.1c-6.1,0-12.3,0-18.4,0.1l0,0
		c-0.9,0-1.8,0-2.7,0c-2,0-4.1,0.1-6.1,0.1c-1,0-1.9,0-2.9,0.1v-46.8c1.9,3.1,5.2,4.9,8.8,4.9h31.1c3.7,0,7.1-2,8.9-5.2v13
		C701.5,454.6,690.6,460.5,682.8,469.6z"/>
	<path class="st2" d="M1210.4,596.2c-74.9-33.4-152.9-59.4-232.9-77.7c-4.5-1-9-2-13.4-3l0,0c-2.7-0.6-5.3-1.1-8-1.7
		c-2.8-0.6-5.7-1.2-8.5-1.8l0,0c-3.7-0.8-7.5-1.5-11.3-2.2c-24-4.6-48.2-8.6-72.6-11.9l4.2-16.5c-10.2,1.2-20.1,4.5-29,9.7
		c1.1-0.8,2.2-1.5,3.3-2.3c8.1-5.3,17.1-9,26.6-10.8l4.5-18.1c1.2-0.5,2.3-1.2,3.2-2.1c1.1-1.1,2-2.4,2.5-3.9
		c0.2-0.5,0.3-1.1,0.4-1.6l2-11.3C1001.1,468.1,1113.4,521,1210.4,596.2L1210.4,596.2z"/>
</g>
</svg>
