<?xml version="1.0" encoding="utf-8"?>
<!-- Generator: Adobe Illustrator 25.3.0, SVG Export Plug-In . SVG Version: 6.00 Build 0)  -->
<svg version="1.1" id="Layer_1" xmlns="http://www.w3.org/2000/svg" xmlns:xlink="http://www.w3.org/1999/xlink" x="0px" y="0px"
	 viewBox="0 0 1920 624" style="enable-background:new 0 0 1920 624;" xml:space="preserve">
<style type="text/css">
	.st0{opacity:0.46;fill:#FFB400;enable-background:new    ;}
	.st1{fill:#FFB400;}
</style>
<path class="st0" d="M955.8,414.7c15.4,68-95,176.1-189.3,173.3c-84.9-2.5-110.7-93.4-218.7-173.3c-194-143.6-440.2-93.8-440-98.7
	C108.1,307.2,917.7,246.7,955.8,414.7z"/>
<path class="st0" d="M964.2,414.4c-15.4,68,95,176.1,189.3,173.3c84.9-2.5,110.7-93.4,218.7-173.3c194-143.6,440.2-93.8,440-98.7
	C1811.9,306.9,1002.3,246.4,964.2,414.4z"/>
<path class="st1" d="M1215.3,338.7c31.2,63.1-92.3,252.6-252.5,252.4c-161.7-0.2-283.6-193.6-252.4-252.4
	c21.3-40.2,103.5,2.5,172.4-53.3c92.6-75,68.5-252.7,78.2-252.4c9.2,0.3-23.6,156.4,55.1,234.7
	C1086.7,337.7,1191.3,290.2,1215.3,338.7z"/>
</svg>
