<svg width="674" height="345" viewBox="0 0 674 345" fill="none" xmlns="http://www.w3.org/2000/svg">
<path d="M393.92 193.907L391.189 223.317C391.141 223.856 391.024 224.387 390.84 224.896C390.563 225.664 390.145 226.374 389.608 226.99C388.929 227.775 388.072 228.386 387.108 228.774C386.145 229.162 385.102 229.315 384.068 229.22L376.218 228.49C374.828 228.359 373.516 227.789 372.473 226.863C371.43 225.937 370.71 224.703 370.418 223.34L370.434 223.184C370.416 223.181 370.397 223.181 370.378 223.184C370.266 222.592 370.239 221.987 370.297 221.388L371.241 211.191C380.658 208.383 388.723 202.236 393.92 193.907Z" fill="#B7B7B8"/>
<path d="M427.825 240.906L422.966 257.892L422.324 260.136L419.861 268.73C418.819 268.616 417.772 268.512 416.722 268.409C415.891 268.32 415.062 268.238 414.234 268.164C404.934 267.259 395.59 266.515 386.202 265.933C386.048 265.917 385.892 265.908 385.732 265.903L386.115 262.044L389.609 226.992C390.146 226.377 390.563 225.667 390.84 224.898C403.718 226.218 416.452 227.99 429.043 230.213L427.646 237.881C427.465 238.889 427.526 239.926 427.825 240.906Z" fill="#D84FB3"/>
<path d="M399.558 132.816C393.912 140.67 386.031 146.648 376.938 149.972L375.385 166.702C382.97 164.341 389.85 160.138 395.408 154.47C390.677 162.213 383.468 168.137 374.947 171.283L373.567 186.181C381.13 183.81 387.988 179.609 393.531 173.951C388.812 181.672 381.633 187.587 373.145 190.748L371.693 206.507C380.123 204.355 387.809 199.957 393.931 193.784L396.025 171.199L396.271 168.601L397.248 158.044L397.826 151.826L398.055 149.348L398.497 144.608L399.583 132.88C399.58 132.857 399.571 132.835 399.558 132.816ZM395.414 154.47C395.458 154.4 395.5 154.333 395.539 154.263C395.547 154.283 395.556 154.301 395.567 154.319C395.519 154.372 395.468 154.422 395.414 154.47Z" fill="#B7B7B8"/>
<path d="M531.083 207.168C531.083 208.055 531.083 208.944 531.061 209.831C531.038 211.576 530.997 213.319 530.924 215.053C530.379 229.023 528.33 242.894 524.811 256.425C501.733 247.721 478.075 240.632 454.01 235.209L457.082 218.229C448.971 209.376 444.48 197.808 444.496 185.81C444.496 184.973 444.518 184.12 444.563 183.3C445.156 194.801 449.873 205.704 457.853 214.019L461.57 193.525C454.895 185.06 451.271 174.598 451.282 163.824C451.282 162.988 451.304 162.135 451.346 161.315C451.874 171.614 455.716 181.468 462.302 189.412L465.619 171.199C460.681 167.757 456.43 163.425 453.083 158.426C452.656 157.793 452.246 157.158 451.855 156.502C451.723 156.29 451.598 156.073 451.472 155.855C451.447 155.816 451.425 155.772 451.397 155.73C448.436 150.608 446.456 144.98 445.557 139.134L429.042 230.232C416.457 228.015 403.722 226.243 390.839 224.918C391.024 224.409 391.141 223.879 391.188 223.34L393.919 193.929C393.989 193.818 394.062 193.703 394.126 193.595C394.062 193.662 394 193.726 393.931 193.793L396.025 171.208L396.271 168.609L397.248 158.053L397.826 151.835L398.055 149.356L398.497 144.616L399.583 132.889V132.802L399.547 132.85C393.901 140.704 386.019 146.682 376.927 150.006L375.374 166.735C382.966 164.364 389.849 160.148 395.408 154.467C390.677 162.211 383.468 168.134 374.947 171.28L373.567 186.178C381.13 183.807 387.988 179.606 393.531 173.949C388.812 181.669 381.633 187.584 373.145 190.745L371.693 206.507C380.123 204.355 387.809 199.957 393.931 193.784V193.921C388.733 202.25 380.669 208.397 371.252 211.208L370.297 221.388C370.239 221.99 370.266 222.597 370.378 223.192C362.961 222.712 355.506 222.385 348.012 222.211V211.122C338.557 208.235 330.491 201.985 325.345 193.556C331.554 199.894 339.399 204.391 348.012 206.549V191.676C338.309 188.885 330.008 182.561 324.75 173.954C331.104 180.441 339.17 184.997 348.012 187.092V171.59C339.11 168.541 331.552 162.487 326.643 154.47C332.537 160.475 339.905 164.833 348.012 167.109V151.263C342.223 149.732 336.773 147.132 331.944 143.596C328.642 141.174 325.66 138.346 323.069 135.178C322.272 134.207 321.517 133.205 320.804 132.169C320.8 131.965 320.808 131.762 320.826 131.559C320.748 131.662 320.673 131.765 320.597 131.874C318.325 128.553 316.481 124.959 315.11 121.178V120.732C315.078 120.794 315.051 120.858 315.029 120.924C315.052 121.005 315.079 121.085 315.11 121.164V222.428C304.598 222.817 294.173 223.503 283.833 224.489L283.816 224.171L283.623 220.825L282.506 201.212L282.386 199.071L281.632 185.715L281.512 183.627L280.711 169.406L280.529 166.169L280.25 161.109L279.948 155.783C279.365 156.558 278.747 157.305 278.108 158.033C273.82 162.918 268.539 166.836 262.617 169.526L263.419 183.746C267.74 181.684 271.71 178.955 275.181 175.661C272.017 179.814 268.062 183.303 263.545 185.927L264.282 198.973C269.13 196.854 273.572 193.907 277.407 190.265C273.932 194.847 269.497 198.617 264.413 201.313L265.159 214.537C269.986 212.423 274.408 209.486 278.225 205.857C274.762 210.411 270.35 214.161 265.296 216.849L265.854 226.504C256.242 227.742 246.716 229.23 237.275 230.966L235.694 219.843C227.595 217.467 220.471 212.563 215.367 205.849C220.955 211.155 227.803 214.956 235.267 216.893L233.39 203.788C225.899 201.26 219.34 196.546 214.56 190.257C219.772 195.201 226.082 198.844 232.974 200.889L231.299 189.217C223.742 186.702 217.123 181.966 212.309 175.63C217.562 180.615 223.929 184.279 230.883 186.317L228.699 171.096C220.48 168.235 213.247 163.098 207.844 156.285L205.501 153.076L204.28 151.124C203.653 150.068 203.068 148.98 202.527 147.859L203.836 157.01L205.3 167.215L207.324 181.329V181.516L207.358 181.572L209.114 193.809L209.972 199.776L215.102 235.547C191.543 240.927 168.38 247.904 145.773 256.431C141.587 240.343 139.47 223.789 139.473 207.168C139.473 99.1952 227.135 11.6661 335.278 11.6661C396.648 11.6661 451.424 39.8554 487.326 83.9797L524.509 156.753C525.336 159.861 526.089 163.002 526.769 166.175C528.823 175.79 530.146 185.547 530.726 195.362C530.823 196.977 530.899 198.588 530.955 200.214C531.044 202.526 531.087 204.844 531.083 207.168Z" fill="#034CEA"/>
<path d="M462.319 189.393L465.62 171.199C460.682 167.757 456.43 163.425 453.084 158.426C452.656 157.793 452.246 157.158 451.855 156.502C451.724 156.29 451.598 156.073 451.472 155.855C451.447 155.816 451.425 155.772 451.397 155.73C448.437 150.608 446.456 144.98 445.558 139.134L429.042 230.232L427.646 237.9C427.466 238.902 427.527 239.932 427.825 240.906C428.171 242.063 428.831 243.102 429.731 243.908C430.632 244.714 431.737 245.257 432.927 245.476L440.355 246.823L442.868 247.274L445.102 247.679C446.354 247.905 447.645 247.759 448.814 247.257C449.566 246.94 450.252 246.486 450.838 245.919C451.55 245.23 452.093 244.387 452.425 243.454C452.55 243.115 452.643 242.765 452.704 242.409L454.008 235.215L457.08 218.234C448.969 209.381 444.478 197.814 444.494 185.815C444.494 184.979 444.516 184.126 444.561 183.306C445.153 194.806 449.871 205.71 457.851 214.024L461.568 193.53C454.894 185.066 451.27 174.603 451.282 163.83C451.282 162.993 451.305 162.14 451.347 161.32C451.886 171.612 455.733 181.457 462.319 189.393ZM451.38 161.044L451.363 161.279V161.089C451.366 161.073 451.372 161.058 451.38 161.044Z" fill="#B7B7B8"/>
<path d="M283.805 224.176C283.763 224.285 283.726 224.394 283.696 224.505C277.766 225.063 271.869 225.724 266.005 226.488L265.837 226.51L265.279 216.854C270.339 214.166 274.756 210.414 278.225 205.857C274.407 209.484 269.985 212.419 265.158 214.532L264.413 201.313C269.5 198.624 273.938 194.86 277.418 190.282C273.583 193.924 269.141 196.871 264.293 198.99L263.556 185.944C268.07 183.312 272.02 179.818 275.181 175.661C271.709 178.955 267.74 181.684 263.419 183.746L262.617 169.526C268.538 166.829 273.816 162.904 278.099 158.011C278.739 157.283 279.356 156.536 279.94 155.761L280.241 161.086L280.521 166.147L280.702 169.384L281.503 183.604L281.624 185.693L282.378 199.048L282.498 201.19L283.615 220.802L283.805 224.176Z" fill="#B7B7B8"/>
<path d="M487.326 83.9825C494.248 92.4864 500.443 101.556 505.844 111.096C506.883 112.925 507.889 114.771 508.863 116.636C512.963 124.447 516.522 132.53 519.516 140.827C520.321 143.035 521.072 145.257 521.792 147.496C522.773 150.55 523.679 153.632 524.51 156.742L487.326 83.9825Z" fill="#034CEA"/>
<path d="M232.623 244.809L226.921 245.626L226.329 245.707L223.218 246.156C221.889 246.344 220.535 246.122 219.337 245.519C218.139 244.916 217.154 243.961 216.516 242.782V242.766C216.446 242.64 216.379 242.509 216.32 242.378C216.257 242.248 216.202 242.114 216.155 241.976C216.125 241.898 216.097 241.818 216.069 241.742C216.024 241.622 215.994 241.502 215.96 241.383C215.89 241.128 215.837 240.869 215.801 240.607L215.075 235.55L209.959 199.779L209.101 193.812L207.345 181.574L207.311 181.36L205.287 167.246L203.823 157.04L202.514 147.889C203.055 149.005 203.64 150.093 204.267 151.154C204.658 151.812 205.063 152.457 205.488 153.106C206.214 154.21 206.991 155.282 207.82 156.321C213.223 163.134 220.456 168.271 228.675 171.132L230.858 186.353C223.904 184.314 217.537 180.648 212.285 175.66C217.099 181.997 223.718 186.733 231.275 189.248L232.95 200.919C226.058 198.875 219.748 195.232 214.536 190.288C219.314 196.578 225.873 201.293 233.363 203.822L235.24 216.927C227.776 214.989 220.928 211.189 215.34 205.882C220.444 212.596 227.568 217.501 235.667 219.877L237.259 230.999L237.653 233.729L237.723 234.22L237.985 236.06L238.183 237.429C238.42 239.143 237.968 240.88 236.926 242.263C235.885 243.645 234.338 244.561 232.623 244.809Z" fill="#B7B7B8"/>
<path d="M247.424 269.067C241.021 269.759 234.639 270.527 228.275 271.373C227.68 271.448 227.086 271.532 226.491 271.613C225.776 271.706 225.061 271.799 224.346 271.892L222.67 265.593C222.668 265.586 222.668 265.578 222.67 265.571L220.615 257.875L216.574 242.791C217.213 243.969 218.197 244.924 219.395 245.527C220.594 246.13 221.948 246.353 223.276 246.164L226.387 245.716L226.979 245.635L232.623 244.809C234.34 244.559 235.888 243.64 236.928 242.253C237.969 240.866 238.417 239.125 238.175 237.409L237.977 236.04L237.714 234.2C238.213 234.545 238.634 234.99 238.948 235.508C239.161 235.853 239.319 236.23 239.418 236.623L242.467 248.992C237.319 252.416 233.252 257.229 230.738 262.872C233.877 258.087 238.07 254.082 242.995 251.161L247.424 269.067Z" fill="#C585B4"/>
<path d="M429.025 265.649C428.304 266.117 427.601 266.601 426.916 267.099C432.579 263.803 438.86 261.706 445.37 260.939L442.728 271.44C436.584 270.624 430.421 269.881 424.238 269.209C424.057 269.187 423.878 269.165 423.696 269.151C422.42 269.009 421.144 268.872 419.859 268.741L422.322 260.145L422.965 257.914L427.824 240.906C428.17 242.063 428.83 243.102 429.73 243.908C430.631 244.714 431.737 245.257 432.926 245.476L440.354 246.823L442.868 247.274L445.102 247.679C446.353 247.905 447.644 247.759 448.813 247.257L445.92 258.751C439.898 259.95 434.162 262.291 429.025 265.649Z" fill="#C585B4"/>
<path d="M280.622 241.24C280.502 244.448 280.667 247.659 281.114 250.838C276.372 246.988 270.645 244.541 264.581 243.775C263.702 239.864 263.659 235.812 264.456 231.883C268.415 232.714 272.215 234.175 275.71 236.21C272.491 233.557 268.795 231.542 264.819 230.274C264.917 229.906 265.017 229.53 265.126 229.159C265.388 228.253 265.684 227.372 266.014 226.493C271.88 225.739 277.777 225.078 283.705 224.511C282.644 227.729 281.842 231.027 281.309 234.373C281.019 236.193 280.82 237.964 280.714 239.687C280.675 240.214 280.647 240.727 280.63 241.246L280.622 241.24Z" fill="#C585B4"/>
<path d="M224.335 271.914C224.271 271.918 224.207 271.927 224.145 271.942C222.481 272.165 220.819 272.399 219.16 272.645C197.613 275.74 176.353 279.681 155.38 284.47C104.498 296.05 54.8716 312.572 7.21094 333.8C68.5349 286.365 139.472 252.838 215.089 235.55L215.815 240.607C215.851 240.869 215.904 241.128 215.974 241.383C216.007 241.503 216.038 241.622 216.083 241.742C216.111 241.818 216.139 241.898 216.169 241.977C216.216 242.114 216.271 242.248 216.334 242.378C216.393 242.509 216.46 242.64 216.53 242.766V242.782L220.57 257.867L222.631 265.576C222.629 265.584 222.629 265.592 222.631 265.599L224.335 271.914Z" fill="#D84FB3"/>
<path d="M315.111 231.426V222.428C304.599 222.817 294.174 223.503 283.834 224.489H283.708C282.647 227.707 281.846 231.005 281.312 234.351C281.022 236.17 280.823 237.942 280.717 239.665C280.678 240.192 280.65 240.705 280.633 241.224C280.514 244.431 280.678 247.643 281.125 250.821C276.383 246.971 270.656 244.524 264.593 243.758C263.714 239.847 263.671 235.795 264.467 231.866C268.427 232.697 272.227 234.158 275.721 236.194C272.503 233.54 268.806 231.525 264.83 230.257C264.928 229.889 265.028 229.513 265.137 229.142C265.4 228.236 265.696 227.355 266.025 226.477L265.858 226.499C256.246 227.737 246.719 229.224 237.279 230.96L237.672 233.69L237.742 234.181C238.241 234.525 238.662 234.971 238.976 235.488C239.189 235.834 239.347 236.21 239.446 236.604L242.467 248.992C237.32 252.416 233.252 257.229 230.738 262.872C233.877 258.087 238.07 254.082 242.995 251.161L247.424 269.067C260.609 267.64 273.888 266.534 287.26 265.749C288.637 265.668 290 265.59 291.377 265.521C292.357 265.465 293.331 265.412 294.317 265.362L295.345 265.312C301.835 264.997 308.344 264.759 314.873 264.595L316.08 264.573V234.83C315.446 233.807 315.111 232.628 315.111 231.426ZM276.213 252.031L268.282 248.992C266.553 248.328 265.274 247.21 265.324 246.457C265.269 246.301 265.221 246.137 265.165 245.972C270.785 246.401 276.237 248.083 281.119 250.893C281.122 250.88 281.122 250.865 281.119 250.852L281.295 250.991L281.125 250.893C281.186 251.292 281.245 251.685 281.312 252.076C281.239 252.449 280.935 252.617 276.213 252.031Z" fill="#D84FB3"/>
<path d="M281.307 252.059C281.24 252.441 280.925 252.594 276.214 252.023L268.283 248.992C266.554 248.328 265.275 247.21 265.325 246.457C265.269 246.301 265.222 246.137 265.166 245.972C270.786 246.401 276.237 248.083 281.12 250.893C281.182 251.284 281.24 251.677 281.307 252.059Z" fill="#C585B4"/>
<path d="M348.012 151.263C342.223 149.732 336.773 147.132 331.944 143.596C328.642 141.174 325.66 138.346 323.069 135.178C322.272 134.207 321.517 133.205 320.804 132.169L320.589 131.885C318.316 128.564 316.473 124.971 315.102 121.189V231.426C315.109 233.158 315.802 234.817 317.029 236.042C318.256 237.267 319.918 237.958 321.653 237.964H341.455C342.603 237.963 343.731 237.661 344.725 237.087C345.719 236.514 346.545 235.689 347.119 234.696C347.705 233.706 348.014 232.576 348.012 231.426V211.122C338.557 208.235 330.491 201.985 325.345 193.556C331.554 199.894 339.4 204.391 348.012 206.549V191.676C338.309 188.885 330.008 182.561 324.75 173.954C331.104 180.441 339.17 184.997 348.012 187.092V171.59C339.11 168.541 331.552 162.487 326.643 154.47C332.537 160.475 339.905 164.833 348.012 167.109V151.263ZM324.876 152.554L325.236 151.944C325.672 152.799 326.137 153.635 326.632 154.453C326.033 153.838 325.447 153.205 324.876 152.554Z" fill="#B7B7B8"/>
<path d="M326.637 154.45C326.03 153.835 325.443 153.203 324.875 152.554L325.235 151.944C325.675 152.799 326.142 153.634 326.637 154.45Z" fill="#B7B7B8"/>
<path d="M378.014 261.082C375.15 257.104 371.496 253.76 367.279 251.256L365.746 264.918C359.56 264.684 353.354 264.524 347.128 264.439V246.329C340.096 246.706 333.333 249.158 327.697 253.375C332.605 247.559 339.553 243.835 347.12 242.966V234.696C347.706 233.706 348.015 232.576 348.013 231.426V222.205C355.505 222.378 362.96 222.705 370.379 223.186C370.384 223.242 370.397 223.297 370.418 223.348L369.511 231.409C373.942 234.626 377.403 238.997 379.514 244.045C376.746 240.192 373.232 236.931 369.181 234.457L367.642 248.178C372.248 251.417 375.844 255.891 378.014 261.082Z" fill="#D84FB3"/>
<path d="M389.603 226.995L386.109 262.046L385.727 265.905C384.085 265.799 382.442 265.706 380.798 265.627C380.541 265.61 380.29 265.593 380.035 265.582C379.848 265.582 379.67 265.562 379.477 265.557C374.908 265.306 370.329 265.097 365.74 264.929L367.273 251.267C371.49 253.771 375.144 257.116 378.008 261.093C375.833 255.9 372.233 251.427 367.622 248.189L369.161 234.468C373.212 236.943 376.726 240.203 379.494 244.057C377.383 239.012 373.925 234.644 369.499 231.426L370.407 223.365C370.7 224.726 371.419 225.958 372.461 226.883C373.503 227.808 374.813 228.378 376.201 228.509L384.051 229.24C385.089 229.335 386.134 229.181 387.1 228.791C388.066 228.4 388.924 227.785 389.603 226.995Z" fill="#C585B4"/>
<path d="M327.697 253.375C333.33 249.16 340.089 246.708 347.119 246.329V264.439C343.18 264.377 339.23 264.349 335.27 264.352C331.361 264.352 327.451 264.381 323.541 264.439C322.963 264.439 322.391 264.439 321.818 264.467C320.515 264.483 319.212 264.507 317.909 264.536C317.292 264.536 316.68 264.559 316.068 264.581V234.83C316.652 235.787 317.472 236.579 318.45 237.129C319.428 237.678 320.531 237.968 321.654 237.97H341.456C342.604 237.968 343.732 237.665 344.726 237.09C345.72 236.515 346.546 235.69 347.119 234.696V242.966C339.552 243.835 332.604 247.559 327.697 253.375Z" fill="#C585B4"/>
<path d="M663.347 333.8C615.688 312.572 566.063 296.05 515.181 284.47C512.335 283.823 509.483 283.191 506.627 282.574C504.93 282.203 503.237 281.843 501.539 281.489C499.735 281.11 497.94 280.739 496.127 280.374C493.742 279.889 491.352 279.415 488.956 278.954C473.699 276.012 458.294 273.503 442.741 271.426L445.383 260.926C438.874 261.692 432.592 263.789 426.93 267.085C427.615 266.589 428.318 266.105 429.038 265.635C434.176 262.282 439.91 259.945 445.93 258.751L448.824 247.246C449.576 246.929 450.262 246.475 450.848 245.908C451.56 245.219 452.102 244.376 452.434 243.443C452.559 243.104 452.653 242.754 452.714 242.398L454.018 235.204C530.174 252.392 601.63 286.043 663.353 333.786L663.347 333.8Z" fill="#D84FB3"/>
</svg>
