<svg id="Layer_1" data-name="Layer 1" xmlns="http://www.w3.org/2000/svg" viewBox="0 0 296.19 233.23"><defs><style>.cls-1{fill:#fbd58b;}.cls-1,.cls-2{stroke:#231f20;stroke-miterlimit:10;stroke-width:4px;}.cls-2{fill:none;}</style></defs><path class="cls-1" d="M293.87,14.12v205a12,12,0,0,1-12,12H14.33a12,12,0,0,1-12-12v-205a11.88,11.88,0,0,1,1-4.77V56.23A56,56,0,0,0,59.16,112H236.25a56,56,0,0,0,55.84-55.78V7.85A11.9,11.9,0,0,1,293.87,14.12Z"/><path class="cls-1" d="M292.09,7.85V56.23A55.94,55.94,0,0,1,236.32,112H59.43A55.94,55.94,0,0,1,3.65,56.23V9.35a12,12,0,0,1,11-7.23H281.87A12,12,0,0,1,292.09,7.85Z"/><line class="cls-2" x1="7.06" y1="228.15" x2="61.58" y2="113.19"/><line class="cls-2" x1="287.95" y1="227.56" x2="233.43" y2="112.6"/></svg>