<?xml version="1.0" encoding="utf-8"?>
<!-- Generator: Adobe Illustrator 25.3.0, SVG Export Plug-In . SVG Version: 6.00 Build 0)  -->
<svg version="1.1" id="Layer_1" xmlns="http://www.w3.org/2000/svg" xmlns:xlink="http://www.w3.org/1999/xlink" x="0px" y="0px"
	 viewBox="0 0 1920 503.2" style="enable-background:new 0 0 1920 503.2;" xml:space="preserve">
<style type="text/css">
	.st0{opacity:0.57;fill:#FCB315;enable-background:new    ;}
	.st1{fill:#FCB315;}
	.st2{fill:none;}
</style>
<g>
	<g>
		<g>
			<path class="st0" d="M1925.3,0H-6.3l0.6,142.5l1.6,357.7c337.1-0.1,759.7-30.3,1231.1-137.9c29.1-6.6,58-13.5,87-20.6
				c207.7-51,412.2-114.3,612.5-189.7C1926,101.3,1925.6,50.6,1925.3,0z"/>
			<path class="st1" d="M1922.8,127.9c-16.2,4.9-32.5,9.8-48.7,14.6c-237,69.9-477.5,127.2-720.7,171.4
				C772.5,383.2,386.5,420.5-0.6,425.5c-0.5-94.3-1-188.7-1.4-283C-2.3,95-2.5,47.5-2.8,0h1924.5
				C1922.1,42.6,1922.5,85.3,1922.8,127.9z"/>
			<path class="st0" d="M1927.3,202.8c-127.3,35.5-285.7,75.3-469.3,112c-26.5,5.3-75.9,15-144,26.8
				c-94.8,16.5-226.1,37.1-382.7,55.9C693.5,426,377.2,452.7-3.3,453.9l-1.5-311.4L-5.5,0h1931.7L1927.3,202.8z"/>
		</g>
	</g>
	<polyline class="st2" points="-176,0 -6.3,0 -5.5,0 -2.8,0 1921.7,0 1925.3,0 1926.2,0 	"/>
</g>
</svg>
