<svg id="Layer_1" data-name="Layer 1" xmlns="http://www.w3.org/2000/svg" viewBox="0 0 1920 624"><defs><style>.cls-1,.cls-2{fill:#22b14c;}.cls-1{isolation:isolate;opacity:0.46;}</style></defs><path class="cls-1" d="M955.75,414.67c15.41,68-95,176.09-189.33,173.33-84.89-2.49-110.73-93.42-218.67-173.33-194-143.65-440.18-93.82-440-98.67C108.08,307.19,917.68,246.71,955.75,414.67Z"/><path class="cls-1" d="M964.25,414.38c-15.41,68,95,176.09,189.33,173.33,84.89-2.49,110.73-93.42,218.67-173.33,194-143.65,440.18-93.83,440-98.67C1811.92,306.9,1002.32,246.42,964.25,414.38Z"/><path class="cls-2" d="M1215.31,338.67C1246.5,401.75,1123,591.3,962.86,591.11c-161.7-.19-283.63-193.64-252.44-252.44,21.31-40.18,103.51,2.51,172.44-53.34,92.6-75,68.5-252.73,78.22-252.44,9.17.27-23.58,156.4,55.11,234.67C1086.71,337.69,1191.35,290.22,1215.31,338.67Z"/></svg>