<?xml version="1.0" encoding="utf-8"?>
<!-- Generator: Adobe Illustrator 25.3.0, SVG Export Plug-In . SVG Version: 6.00 Build 0)  -->
<svg version="1.1" id="Layer_1" xmlns="http://www.w3.org/2000/svg" xmlns:xlink="http://www.w3.org/1999/xlink" x="0px" y="0px"
	 viewBox="0 0 397.8 373.3" style="enable-background:new 0 0 397.8 373.3;" xml:space="preserve">
<style type="text/css">
	.st0{fill:none;stroke:#231F20;stroke-width:20;stroke-miterlimit:10;}
	.st1{fill:#231F20;}
</style>
<circle class="st0" cx="140.9" cy="123.9" r="96.9"/>
<path class="st1" d="M205.6,194.9c7.5,5,14.9,10.1,22.1,15.3c7.3,5.2,14.5,10.5,21.7,15.8l10.7,8l10.6,8.1l10.5,8.2l10.4,8.3
	c3.5,2.8,7,5.4,10.7,8s7.4,5.1,11,7.7c3.6,2.6,7,5.4,10.2,8.5c3.2,3.1,6.1,6.4,8.7,10c5.4,7.3,10.2,15.1,14.1,23.4
	c2.1,4.3,3.8,8.8,5.4,13.3c0.8,2.4,1.5,4.7,2.1,7.2c0.7,2.6,1.2,5.2,1.5,7.8c0.2,1.6-0.9,3-2.5,3.2c0,0,0,0,0,0c-0.2,0-0.5,0-0.7,0
	c-2.6-0.4-5.2-0.9-7.8-1.5c-2.5-0.6-4.9-1.4-7.2-2.1c-4.5-1.5-9-3.3-13.3-5.4c-8.2-3.9-16.1-8.6-23.4-14.1c-3.6-2.6-6.9-5.5-10-8.7
	c-3.1-3.2-5.9-6.6-8.5-10.2c-2.6-3.6-5.1-7.4-7.7-11s-5.2-7.3-8-10.7l-8.3-10.4l-8.2-10.5l-8.1-10.6l-8-10.7
	c-5.3-7.2-10.6-14.4-15.8-21.7s-10.3-14.6-15.3-22.1c-0.7-1-0.4-2.5,0.6-3.2C203.8,194.4,204.8,194.4,205.6,194.9L205.6,194.9z"/>
</svg>
