<?xml version="1.0" encoding="utf-8"?>
<!-- Generator: Adobe Illustrator 25.3.0, SVG Export Plug-In . SVG Version: 6.00 Build 0)  -->
<svg version="1.1" id="Layer_1" xmlns="http://www.w3.org/2000/svg" xmlns:xlink="http://www.w3.org/1999/xlink" x="0px" y="0px"
	 viewBox="0 0 1920 1916" style="enable-background:new 0 0 1920 1916;" xml:space="preserve">
<style type="text/css">
	.st0{fill:#22B14C;}
	.st1{fill:#FF5D76;}
	.st2{fill:#474746;}
	.st3{fill:none;}
</style>
<g>
	<path class="st0" d="M1920,199v571.3H0v-628c159-31,321-53,484.6-65.8c71-5.5,140.5-9.3,208.5-11.3c90.5-2.7,178.4-2.5,263.5,0
		C1346.4,76.9,1676.6,138.2,1920,199z"/>
	<path class="st1" d="M1920,218.1v501.5H0V161.3c159-31,321-53,484.6-65.8c71-5.5,140.5-9.3,208.5-11.3c90.5-2.7,178.4-2.5,263.5,0
		C1346.4,95.9,1676.6,157.3,1920,218.1z"/>
	<path class="st2" d="M1920,213.7v556.6H0V156.9c159-31,321-53,484.6-65.8c71-5.5,140.5-9.3,208.5-11.3c90.5-2.7,178.4-2.5,263.5,0
		C1346.4,91.5,1676.6,152.9,1920,213.7z"/>
	<line class="st3" x1="1920" y1="774.7" x2="0" y2="774.7"/>
</g>
<rect y="497.3" class="st2" width="1920" height="1389.3"/>
</svg>
