<svg id="Layer_1" data-name="Layer 1" xmlns="http://www.w3.org/2000/svg" viewBox="0 0 1920 3833.96"><defs><style>.cls-1{fill:#22b14c;}.cls-2{fill:#ff5d76;}.cls-3{fill:#474746;}</style></defs><path class="cls-1" d="M1920,199V770.3H0v-628A4277.32,4277.32,0,0,1,484.6,76.5q106.5-8.25,208.5-11.3c90.5-2.7,178.4-2.5,263.5,0C1346.4,76.9,1676.6,138.2,1920,199Z"/><path class="cls-2" d="M1920,218.1V719.6H0V161.3A4277.32,4277.32,0,0,1,484.6,95.5q106.5-8.25,208.5-11.3c90.5-2.7,178.4-2.5,263.5,0C1346.4,95.9,1676.6,157.3,1920,218.1Z"/><path class="cls-3" d="M1920,213.7V770.3H0V156.9A4277.32,4277.32,0,0,1,484.6,91.1q106.5-8.25,208.5-11.3c90.5-2.7,178.4-2.5,263.5,0C1346.4,91.5,1676.6,152.9,1920,213.7Z"/><rect class="cls-3" y="497.3" width="1920" height="3316.87"/></svg>