<?xml version="1.0" encoding="utf-8"?>
<!-- Generator: Adobe Illustrator 25.3.0, SVG Export Plug-In . SVG Version: 6.00 Build 0)  -->
<svg version="1.1" id="Layer_1" xmlns="http://www.w3.org/2000/svg" xmlns:xlink="http://www.w3.org/1999/xlink" x="0px" y="0px"
	 viewBox="0 0 1920 1346.1" style="enable-background:new 0 0 1920 1346.1;" xml:space="preserve">
<style type="text/css">
	.st0{fill:#22B14C;}
	.st1{fill:#FF5D76;}
	.st2{fill:#474746;}
	.st3{fill:none;}
</style>
<g>
	<path class="st0" d="M1928.9,199v571.3H-4.4v-628c160.1-31,323.2-53,488-65.8C555,71,625,67.2,693.5,65.2
		c91.1-2.7,179.6-2.5,265.3,0C1351.3,76.9,1683.8,138.2,1928.9,199z"/>
	<path class="st1" d="M1928.9,218.1v501.5H-4.4V161.3c160.1-31,323.2-53,488-65.8C555,90,625,86.2,693.5,84.2
		c91.1-2.7,179.6-2.5,265.3,0C1351.3,95.9,1683.8,157.3,1928.9,218.1z"/>
	<path class="st2" d="M1928.9,213.7v556.6H-4.4V156.9c160.1-31,323.2-53,488-65.8C555,85.6,625,81.8,693.5,79.8
		c91.1-2.7,179.6-2.5,265.3,0C1351.3,91.5,1683.8,152.9,1928.9,213.7z"/>
	<line class="st3" x1="1928.9" y1="774.7" x2="-4.4" y2="774.7"/>
</g>
<rect y="497.3" class="st2" width="1920" height="796"/>
</svg>
